<svg xmlns="http://www.w3.org/2000/svg" xmlns:xlink="http://www.w3.org/1999/xlink" width="500" zoomAndPan="magnify" viewBox="0 0 375 374.999991" height="500" preserveAspectRatio="xMidYMid meet" version="1.0"><defs><g/><clipPath id="8af35ddbd5"><path d="M 93 152.46875 L 158.308594 152.46875 L 158.308594 212.46875 L 93 212.46875 Z M 93 152.46875 " clip-rule="nonzero"/></clipPath></defs><g clip-path="url(#8af35ddbd5)"><path fill="#202020" d="M 95.78125 201.6875 L 134.4375 201.6875 C 136.230469 201.6875 137.75 200.351562 137.996094 198.585938 L 142.707031 163.226562 C 142.707031 163.226562 142.707031 163.226562 142.707031 163.210938 C 143.496094 157.089844 148.753906 152.453125 154.9375 152.453125 L 155.863281 152.453125 C 157.125 152.453125 158.144531 153.472656 158.144531 154.734375 C 158.144531 155.992188 157.125 157.011719 155.863281 157.011719 L 154.9375 157.011719 C 151.03125 157.011719 147.71875 159.929688 147.21875 163.804688 C 147.21875 163.804688 147.21875 163.804688 147.21875 163.820312 L 142.507812 199.179688 C 141.976562 203.207031 138.511719 206.246094 134.4375 206.246094 L 133.070312 206.246094 C 133.027344 209.558594 130.351562 212.234375 127.023438 212.234375 C 123.695312 212.234375 121.019531 209.558594 120.976562 206.246094 L 111.523438 206.246094 C 111.476562 209.558594 108.804688 212.234375 105.476562 212.234375 C 102.148438 212.234375 99.472656 209.558594 99.429688 206.246094 L 95.78125 206.246094 C 94.519531 206.246094 93.503906 205.226562 93.503906 203.964844 C 93.503906 202.707031 94.519531 201.6875 95.78125 201.6875 Z M 95.78125 201.6875 " fill-opacity="1" fill-rule="nonzero"/></g><path fill="#77bf3f" d="M 109.425781 162.921875 L 116.949219 162.011719 C 119.820312 166.601562 126.050781 174.503906 137.082031 179.214844 L 134.984375 194.878906 C 119.410156 185.898438 111.875 169.351562 109.425781 162.921875 Z M 109.425781 162.921875 " fill-opacity="1" fill-rule="nonzero"/><path fill="#50b948" d="M 104.761719 163.484375 C 106.90625 169.59375 114.609375 188.222656 132.039062 198.496094 L 108.121094 198.496094 C 100.097656 184.46875 98.121094 169.136719 97.664062 164.335938 Z M 104.761719 163.484375 " fill-opacity="1" fill-rule="nonzero"/><path fill="#fbcc06" d="M 137.722656 174.503906 C 129.789062 170.808594 124.789062 165.324219 122.023438 161.402344 L 136.839844 159.625 C 137.539062 159.535156 138.238281 159.792969 138.738281 160.292969 C 139.242188 160.796875 139.46875 161.496094 139.378906 162.195312 Z M 137.722656 174.503906 " fill-opacity="1" fill-rule="nonzero"/><path fill="#38a34a" d="M 82.605469 166.828125 C 82.988281 166.34375 83.535156 166.039062 84.140625 165.960938 L 93.152344 164.882812 C 93.609375 169.972656 95.476562 184.457031 102.90625 198.496094 L 93.515625 198.496094 C 89.324219 198.496094 85.738281 195.367188 85.191406 191.203125 L 82.179688 168.53125 C 82.058594 167.921875 82.226562 167.316406 82.605469 166.828125 Z M 82.605469 166.828125 " fill-opacity="1" fill-rule="nonzero"/><g fill="#50b948" fill-opacity="1"><g transform="translate(158.383163, 181.023211)"><g><path d="M 22.640625 -1.71875 C 22.117188 -0.9375 21.59375 -0.375 21.0625 -0.03125 C 20.539062 0.3125 19.84375 0.484375 18.96875 0.484375 C 18.03125 0.484375 17.257812 0.207031 16.65625 -0.34375 C 16.050781 -0.894531 15.597656 -1.851562 15.296875 -3.21875 L 14.546875 -6.65625 C 14.273438 -7.84375 14.019531 -8.753906 13.78125 -9.390625 C 13.539062 -10.035156 13.175781 -10.550781 12.6875 -10.9375 C 12.207031 -11.332031 11.535156 -11.53125 10.671875 -11.53125 L 7.40625 -11.53125 L 7.40625 -3.640625 C 7.40625 -2.765625 7.472656 -2.132812 7.609375 -1.75 C 7.753906 -1.363281 8.015625 -1.097656 8.390625 -0.953125 C 8.765625 -0.816406 9.363281 -0.726562 10.1875 -0.6875 L 10.1875 0 C 9.132812 -0.0703125 7.679688 -0.109375 5.828125 -0.109375 C 3.859375 -0.109375 2.394531 -0.0703125 1.4375 0 L 1.4375 -0.6875 C 2.257812 -0.726562 2.859375 -0.816406 3.234375 -0.953125 C 3.617188 -1.097656 3.878906 -1.363281 4.015625 -1.75 C 4.148438 -2.132812 4.21875 -2.765625 4.21875 -3.640625 L 4.21875 -20.65625 C 4.21875 -21.519531 4.148438 -22.144531 4.015625 -22.53125 C 3.878906 -22.925781 3.617188 -23.191406 3.234375 -23.328125 C 2.859375 -23.460938 2.257812 -23.554688 1.4375 -23.609375 L 1.4375 -24.296875 C 2.394531 -24.222656 3.789062 -24.1875 5.625 -24.1875 L 9.328125 -24.21875 C 9.765625 -24.25 10.257812 -24.265625 10.8125 -24.265625 C 13.457031 -24.265625 15.492188 -23.707031 16.921875 -22.59375 C 18.359375 -21.488281 19.078125 -20.050781 19.078125 -18.28125 C 19.078125 -17.394531 18.863281 -16.5 18.4375 -15.59375 C 18.019531 -14.6875 17.3125 -13.875 16.3125 -13.15625 C 15.320312 -12.4375 14.023438 -11.953125 12.421875 -11.703125 L 12.828125 -11.625 C 14.335938 -11.375 15.4375 -10.914062 16.125 -10.25 C 16.8125 -9.59375 17.316406 -8.546875 17.640625 -7.109375 L 18.5 -3.609375 C 18.726562 -2.554688 18.96875 -1.820312 19.21875 -1.40625 C 19.46875 -1 19.8125 -0.796875 20.25 -0.796875 C 20.632812 -0.796875 20.957031 -0.894531 21.21875 -1.09375 C 21.476562 -1.300781 21.78125 -1.632812 22.125 -2.09375 Z M 9.953125 -23.609375 C 9.242188 -23.609375 8.710938 -23.523438 8.359375 -23.359375 C 8.003906 -23.203125 7.753906 -22.914062 7.609375 -22.5 C 7.472656 -22.09375 7.40625 -21.476562 7.40625 -20.65625 L 7.40625 -12.21875 L 9.703125 -12.21875 C 11.972656 -12.21875 13.53125 -12.71875 14.375 -13.71875 C 15.21875 -14.726562 15.640625 -16.125 15.640625 -17.90625 C 15.640625 -19.78125 15.191406 -21.195312 14.296875 -22.15625 C 13.410156 -23.125 11.960938 -23.609375 9.953125 -23.609375 Z M 9.953125 -23.609375 "/></g></g></g><g fill="#50b948" fill-opacity="1"><g transform="translate(180.617613, 181.023211)"><g><path d="M 18.328125 -4.046875 C 18.328125 -2.859375 18.40625 -1.507812 18.5625 0 C 17.070312 -0.0703125 14.566406 -0.109375 11.046875 -0.109375 C 6.816406 -0.109375 3.613281 -0.0703125 1.4375 0 L 1.4375 -0.6875 C 2.257812 -0.726562 2.859375 -0.816406 3.234375 -0.953125 C 3.617188 -1.097656 3.878906 -1.363281 4.015625 -1.75 C 4.148438 -2.132812 4.21875 -2.765625 4.21875 -3.640625 L 4.21875 -17.21875 C 4.21875 -18.09375 4.148438 -18.722656 4.015625 -19.109375 C 3.878906 -19.503906 3.617188 -19.769531 3.234375 -19.90625 C 2.859375 -20.039062 2.257812 -20.128906 1.4375 -20.171875 L 1.4375 -20.859375 C 3.613281 -20.796875 6.816406 -20.765625 11.046875 -20.765625 C 14.253906 -20.765625 16.53125 -20.796875 17.875 -20.859375 C 17.71875 -19.484375 17.640625 -18.25 17.640625 -17.15625 C 17.640625 -16.257812 17.671875 -15.550781 17.734375 -15.03125 L 16.953125 -15.03125 C 16.785156 -16.90625 16.390625 -18.210938 15.765625 -18.953125 C 15.140625 -19.703125 14.117188 -20.078125 12.703125 -20.078125 L 10.1875 -20.078125 C 9.363281 -20.078125 8.765625 -20.015625 8.390625 -19.890625 C 8.015625 -19.765625 7.753906 -19.503906 7.609375 -19.109375 C 7.472656 -18.722656 7.40625 -18.09375 7.40625 -17.21875 L 7.40625 -10.84375 L 10.265625 -10.84375 C 10.992188 -10.84375 11.550781 -11.03125 11.9375 -11.40625 C 12.332031 -11.78125 12.597656 -12.191406 12.734375 -12.640625 C 12.867188 -13.085938 12.992188 -13.65625 13.109375 -14.34375 L 13.890625 -14.34375 C 13.828125 -13.5625 13.796875 -12.710938 13.796875 -11.796875 L 13.796875 -10.5 C 13.796875 -9.601562 13.863281 -8.320312 14 -6.65625 L 13.203125 -6.65625 C 13.066406 -7.75 12.804688 -8.601562 12.421875 -9.21875 C 12.035156 -9.84375 11.316406 -10.15625 10.265625 -10.15625 L 7.40625 -10.15625 L 7.40625 -3.640625 C 7.40625 -2.765625 7.472656 -2.132812 7.609375 -1.75 C 7.753906 -1.363281 8.015625 -1.109375 8.390625 -0.984375 C 8.765625 -0.859375 9.363281 -0.796875 10.1875 -0.796875 L 12.703125 -0.796875 C 13.835938 -0.796875 14.738281 -0.976562 15.40625 -1.34375 C 16.070312 -1.707031 16.578125 -2.296875 16.921875 -3.109375 C 17.265625 -3.921875 17.503906 -5.054688 17.640625 -6.515625 L 18.421875 -6.515625 C 18.359375 -5.898438 18.328125 -5.078125 18.328125 -4.046875 Z M 18.328125 -4.046875 "/></g></g></g><g fill="#50b948" fill-opacity="1"><g transform="translate(201.033505, 181.023211)"><g><path d="M 8.78125 -24.671875 C 9.789062 -24.671875 10.585938 -24.5625 11.171875 -24.34375 C 11.753906 -24.125 12.351562 -23.8125 12.96875 -23.40625 C 13.46875 -23.082031 13.859375 -22.921875 14.140625 -22.921875 C 14.347656 -22.921875 14.503906 -23.039062 14.609375 -23.28125 C 14.722656 -23.519531 14.816406 -23.90625 14.890625 -24.4375 L 15.6875 -24.4375 C 15.570312 -23.101562 15.515625 -20.769531 15.515625 -17.4375 L 14.71875 -17.4375 C 14.582031 -19.28125 14.050781 -20.835938 13.125 -22.109375 C 12.195312 -23.378906 10.851562 -24.015625 9.09375 -24.015625 C 7.851562 -24.015625 6.84375 -23.640625 6.0625 -22.890625 C 5.289062 -22.148438 4.90625 -21.195312 4.90625 -20.03125 C 4.90625 -19.164062 5.101562 -18.410156 5.5 -17.765625 C 5.90625 -17.128906 6.414062 -16.582031 7.03125 -16.125 C 7.644531 -15.664062 8.523438 -15.082031 9.671875 -14.375 L 10.671875 -13.765625 C 12.109375 -12.867188 13.242188 -12.082031 14.078125 -11.40625 C 14.921875 -10.726562 15.59375 -9.953125 16.09375 -9.078125 C 16.59375 -8.210938 16.84375 -7.195312 16.84375 -6.03125 C 16.84375 -3.957031 16.15625 -2.351562 14.78125 -1.21875 C 13.414062 -0.0820312 11.679688 0.484375 9.578125 0.484375 C 8.472656 0.484375 7.570312 0.367188 6.875 0.140625 C 6.175781 -0.0859375 5.507812 -0.398438 4.875 -0.796875 C 4.375 -1.109375 3.984375 -1.265625 3.703125 -1.265625 C 3.492188 -1.265625 3.332031 -1.144531 3.21875 -0.90625 C 3.101562 -0.664062 3.015625 -0.285156 2.953125 0.234375 L 2.15625 0.234375 C 2.25 -1.015625 2.296875 -3.757812 2.296875 -8 L 3.09375 -8 C 3.25 -5.6875 3.816406 -3.804688 4.796875 -2.359375 C 5.785156 -0.921875 7.296875 -0.203125 9.328125 -0.203125 C 10.566406 -0.203125 11.617188 -0.582031 12.484375 -1.34375 C 13.359375 -2.113281 13.796875 -3.253906 13.796875 -4.765625 C 13.796875 -6.046875 13.363281 -7.132812 12.5 -8.03125 C 11.644531 -8.925781 10.289062 -9.929688 8.4375 -11.046875 C 7.09375 -11.867188 6 -12.597656 5.15625 -13.234375 C 4.320312 -13.878906 3.640625 -14.65625 3.109375 -15.5625 C 2.585938 -16.46875 2.328125 -17.523438 2.328125 -18.734375 C 2.328125 -20.648438 2.941406 -22.117188 4.171875 -23.140625 C 5.410156 -24.160156 6.945312 -24.671875 8.78125 -24.671875 Z M 8.78125 -24.671875 "/></g></g></g><g fill="#50b948" fill-opacity="1"><g transform="translate(219.562209, 181.023211)"><g><path d="M 18.328125 -4.046875 C 18.328125 -2.859375 18.40625 -1.507812 18.5625 0 C 17.070312 -0.0703125 14.566406 -0.109375 11.046875 -0.109375 C 6.816406 -0.109375 3.613281 -0.0703125 1.4375 0 L 1.4375 -0.6875 C 2.257812 -0.726562 2.859375 -0.816406 3.234375 -0.953125 C 3.617188 -1.097656 3.878906 -1.363281 4.015625 -1.75 C 4.148438 -2.132812 4.21875 -2.765625 4.21875 -3.640625 L 4.21875 -17.21875 C 4.21875 -18.09375 4.148438 -18.722656 4.015625 -19.109375 C 3.878906 -19.503906 3.617188 -19.769531 3.234375 -19.90625 C 2.859375 -20.039062 2.257812 -20.128906 1.4375 -20.171875 L 1.4375 -20.859375 C 3.613281 -20.796875 6.816406 -20.765625 11.046875 -20.765625 C 14.253906 -20.765625 16.53125 -20.796875 17.875 -20.859375 C 17.71875 -19.484375 17.640625 -18.25 17.640625 -17.15625 C 17.640625 -16.257812 17.671875 -15.550781 17.734375 -15.03125 L 16.953125 -15.03125 C 16.785156 -16.90625 16.390625 -18.210938 15.765625 -18.953125 C 15.140625 -19.703125 14.117188 -20.078125 12.703125 -20.078125 L 10.1875 -20.078125 C 9.363281 -20.078125 8.765625 -20.015625 8.390625 -19.890625 C 8.015625 -19.765625 7.753906 -19.503906 7.609375 -19.109375 C 7.472656 -18.722656 7.40625 -18.09375 7.40625 -17.21875 L 7.40625 -10.84375 L 10.265625 -10.84375 C 10.992188 -10.84375 11.550781 -11.03125 11.9375 -11.40625 C 12.332031 -11.78125 12.597656 -12.191406 12.734375 -12.640625 C 12.867188 -13.085938 12.992188 -13.65625 13.109375 -14.34375 L 13.890625 -14.34375 C 13.828125 -13.5625 13.796875 -12.710938 13.796875 -11.796875 L 13.796875 -10.5 C 13.796875 -9.601562 13.863281 -8.320312 14 -6.65625 L 13.203125 -6.65625 C 13.066406 -7.75 12.804688 -8.601562 12.421875 -9.21875 C 12.035156 -9.84375 11.316406 -10.15625 10.265625 -10.15625 L 7.40625 -10.15625 L 7.40625 -3.640625 C 7.40625 -2.765625 7.472656 -2.132812 7.609375 -1.75 C 7.753906 -1.363281 8.015625 -1.109375 8.390625 -0.984375 C 8.765625 -0.859375 9.363281 -0.796875 10.1875 -0.796875 L 12.703125 -0.796875 C 13.835938 -0.796875 14.738281 -0.976562 15.40625 -1.34375 C 16.070312 -1.707031 16.578125 -2.296875 16.921875 -3.109375 C 17.265625 -3.921875 17.503906 -5.054688 17.640625 -6.515625 L 18.421875 -6.515625 C 18.359375 -5.898438 18.328125 -5.078125 18.328125 -4.046875 Z M 18.328125 -4.046875 "/></g></g></g><g fill="#50b948" fill-opacity="1"><g transform="translate(239.978101, 181.023211)"><g><path d="M 10.1875 -20.171875 C 9.363281 -20.128906 8.765625 -20.039062 8.390625 -19.90625 C 8.015625 -19.769531 7.753906 -19.503906 7.609375 -19.109375 C 7.472656 -18.722656 7.40625 -18.09375 7.40625 -17.21875 L 7.40625 -3.640625 C 7.40625 -2.765625 7.472656 -2.132812 7.609375 -1.75 C 7.753906 -1.363281 8.015625 -1.109375 8.390625 -0.984375 C 8.765625 -0.859375 9.363281 -0.796875 10.1875 -0.796875 L 12.359375 -0.796875 C 13.929688 -0.796875 15.15625 -1.265625 16.03125 -2.203125 C 16.914062 -3.140625 17.453125 -4.691406 17.640625 -6.859375 L 18.421875 -6.859375 C 18.359375 -6.148438 18.328125 -5.210938 18.328125 -4.046875 C 18.328125 -2.859375 18.40625 -1.507812 18.5625 0 C 17.070312 -0.0703125 14.566406 -0.109375 11.046875 -0.109375 C 6.816406 -0.109375 3.613281 -0.0703125 1.4375 0 L 1.4375 -0.6875 C 2.257812 -0.726562 2.859375 -0.816406 3.234375 -0.953125 C 3.617188 -1.097656 3.878906 -1.363281 4.015625 -1.75 C 4.148438 -2.132812 4.21875 -2.765625 4.21875 -3.640625 L 4.21875 -17.21875 C 4.21875 -18.09375 4.148438 -18.722656 4.015625 -19.109375 C 3.878906 -19.503906 3.617188 -19.769531 3.234375 -19.90625 C 2.859375 -20.039062 2.257812 -20.128906 1.4375 -20.171875 L 1.4375 -20.859375 C 2.394531 -20.796875 3.859375 -20.765625 5.828125 -20.765625 C 7.660156 -20.765625 9.113281 -20.796875 10.1875 -20.859375 Z M 10.1875 -20.171875 "/></g></g></g><g fill="#50b948" fill-opacity="1"><g transform="translate(259.639118, 181.023211)"><g><path d="M 10.1875 -20.171875 C 9.363281 -20.128906 8.765625 -20.039062 8.390625 -19.90625 C 8.015625 -19.769531 7.753906 -19.503906 7.609375 -19.109375 C 7.472656 -18.722656 7.40625 -18.09375 7.40625 -17.21875 L 7.40625 -3.640625 C 7.40625 -2.765625 7.472656 -2.132812 7.609375 -1.75 C 7.753906 -1.363281 8.015625 -1.109375 8.390625 -0.984375 C 8.765625 -0.859375 9.363281 -0.796875 10.1875 -0.796875 L 12.359375 -0.796875 C 13.929688 -0.796875 15.15625 -1.265625 16.03125 -2.203125 C 16.914062 -3.140625 17.453125 -4.691406 17.640625 -6.859375 L 18.421875 -6.859375 C 18.359375 -6.148438 18.328125 -5.210938 18.328125 -4.046875 C 18.328125 -2.859375 18.40625 -1.507812 18.5625 0 C 17.070312 -0.0703125 14.566406 -0.109375 11.046875 -0.109375 C 6.816406 -0.109375 3.613281 -0.0703125 1.4375 0 L 1.4375 -0.6875 C 2.257812 -0.726562 2.859375 -0.816406 3.234375 -0.953125 C 3.617188 -1.097656 3.878906 -1.363281 4.015625 -1.75 C 4.148438 -2.132812 4.21875 -2.765625 4.21875 -3.640625 L 4.21875 -17.21875 C 4.21875 -18.09375 4.148438 -18.722656 4.015625 -19.109375 C 3.878906 -19.503906 3.617188 -19.769531 3.234375 -19.90625 C 2.859375 -20.039062 2.257812 -20.128906 1.4375 -20.171875 L 1.4375 -20.859375 C 2.394531 -20.796875 3.859375 -20.765625 5.828125 -20.765625 C 7.660156 -20.765625 9.113281 -20.796875 10.1875 -20.859375 Z M 10.1875 -20.171875 "/></g></g></g><g fill="#fbcc06" fill-opacity="1"><g transform="translate(160.529741, 204.768774)"><g><path d="M 4.984375 1.703125 C 4.492188 1.703125 3.882812 1.410156 3.15625 0.828125 C 2.644531 0.742188 2.207031 0.628906 1.84375 0.484375 C 1.488281 0.347656 1.191406 0.1875 0.953125 0 C 0.617188 -0.28125 0.328125 -0.660156 0.078125 -1.140625 C -0.171875 -1.617188 -0.296875 -2.078125 -0.296875 -2.515625 C -0.296875 -2.847656 -0.222656 -3.148438 -0.078125 -3.421875 C 0.285156 -4.046875 0.738281 -4.359375 1.28125 -4.359375 C 1.695312 -4.359375 1.941406 -4.007812 2.015625 -3.3125 C 2.097656 -2.65625 2.164062 -2.128906 2.21875 -1.734375 C 2.28125 -1.347656 2.328125 -1.097656 2.359375 -0.984375 C 2.535156 -0.398438 2.835938 0.09375 3.265625 0.5 C 3.765625 0.601562 4.304688 0.65625 4.890625 0.65625 C 6.179688 0.65625 7.414062 0.410156 8.59375 -0.078125 C 9.09375 -0.285156 9.582031 -0.5625 10.0625 -0.90625 C 10.539062 -1.257812 10.929688 -1.644531 11.234375 -2.0625 C 11.546875 -2.476562 11.703125 -2.878906 11.703125 -3.265625 C 11.703125 -3.828125 11.207031 -4.265625 10.21875 -4.578125 L 7.078125 -5.296875 C 6.429688 -5.429688 5.914062 -5.679688 5.53125 -6.046875 C 5.144531 -6.410156 4.953125 -6.828125 4.953125 -7.296875 C 4.953125 -8.003906 5.398438 -8.71875 6.296875 -9.4375 C 6.742188 -9.800781 7.269531 -10.113281 7.875 -10.375 C 8.488281 -10.632812 9.128906 -10.832031 9.796875 -10.96875 C 10.472656 -11.101562 11.125 -11.171875 11.75 -11.171875 C 12.625 -11.171875 13.375 -11.03125 14 -10.75 C 14.625 -10.476562 15.015625 -10.082031 15.171875 -9.5625 C 15.210938 -9.445312 15.234375 -9.316406 15.234375 -9.171875 C 15.234375 -8.441406 14.867188 -7.9375 14.140625 -7.65625 C 13.703125 -7.46875 13.328125 -7.375 13.015625 -7.375 C 12.828125 -7.375 12.675781 -7.410156 12.5625 -7.484375 C 12.539062 -7.515625 12.53125 -7.546875 12.53125 -7.578125 C 12.53125 -7.660156 12.695312 -7.707031 13.03125 -7.71875 C 13.226562 -7.726562 13.394531 -7.742188 13.53125 -7.765625 C 13.664062 -7.796875 13.757812 -7.820312 13.8125 -7.84375 C 14.269531 -8.082031 14.5 -8.4375 14.5 -8.90625 C 14.5 -9.144531 14.429688 -9.394531 14.296875 -9.65625 C 13.929688 -10.332031 13.007812 -10.671875 11.53125 -10.671875 C 10.988281 -10.671875 10.429688 -10.613281 9.859375 -10.5 C 9.296875 -10.382812 8.753906 -10.21875 8.234375 -10 C 7.722656 -9.78125 7.289062 -9.503906 6.9375 -9.171875 C 6.3125 -8.597656 6 -8.082031 6 -7.625 C 6 -7.28125 6.171875 -6.972656 6.515625 -6.703125 C 6.859375 -6.441406 7.375 -6.242188 8.0625 -6.109375 L 10.171875 -5.71875 C 10.984375 -5.5625 11.640625 -5.332031 12.140625 -5.03125 C 12.640625 -4.726562 12.890625 -4.265625 12.890625 -3.640625 C 12.890625 -3.097656 12.75 -2.585938 12.46875 -2.109375 C 12.195312 -1.628906 11.832031 -1.203125 11.375 -0.828125 C 10.914062 -0.453125 10.394531 -0.140625 9.8125 0.109375 C 8.488281 0.691406 6.925781 0.984375 5.125 0.984375 C 4.90625 0.984375 4.679688 0.976562 4.453125 0.96875 C 4.222656 0.957031 4.003906 0.9375 3.796875 0.90625 C 3.960938 1 4.171875 1.09375 4.421875 1.1875 C 4.679688 1.289062 4.976562 1.382812 5.3125 1.46875 C 5.34375 1.476562 5.359375 1.5 5.359375 1.53125 C 5.359375 1.644531 5.234375 1.703125 4.984375 1.703125 Z M 2.625 0.328125 C 2.300781 -0.0351562 2.050781 -0.40625 1.875 -0.78125 C 1.613281 -1.382812 1.414062 -2.117188 1.28125 -2.984375 C 1.1875 -3.617188 1.085938 -3.9375 0.984375 -3.9375 C 0.890625 -3.9375 0.757812 -3.863281 0.59375 -3.71875 C 0.4375 -3.570312 0.359375 -3.269531 0.359375 -2.8125 C 0.359375 -1.90625 0.679688 -1.117188 1.328125 -0.453125 C 1.648438 -0.117188 2.082031 0.140625 2.625 0.328125 Z M 2.625 0.328125 "/></g></g></g><g fill="#fbcc06" fill-opacity="1"><g transform="translate(173.893821, 204.768774)"><g><path d="M 0.90625 0.234375 C 0.53125 0.234375 0.1875 0.113281 -0.125 -0.125 C -0.4375 -0.375 -0.59375 -0.703125 -0.59375 -1.109375 C -0.59375 -1.953125 -0.0703125 -2.914062 0.96875 -4 C 2.03125 -5.101562 2.976562 -5.65625 3.8125 -5.65625 C 4.082031 -5.65625 4.300781 -5.578125 4.46875 -5.421875 C 4.644531 -5.273438 4.734375 -5.09375 4.734375 -4.875 C 4.734375 -4.207031 4.203125 -3.550781 3.140625 -2.90625 C 2.203125 -2.34375 1.410156 -2.0625 0.765625 -2.0625 C 0.671875 -2.0625 0.585938 -2.070312 0.515625 -2.09375 C 0.335938 -1.769531 0.25 -1.429688 0.25 -1.078125 C 0.25 -0.453125 0.539062 -0.140625 1.125 -0.140625 C 1.71875 -0.140625 2.488281 -0.539062 3.4375 -1.34375 C 4.15625 -1.925781 4.773438 -2.546875 5.296875 -3.203125 C 5.398438 -3.347656 5.492188 -3.421875 5.578125 -3.421875 C 5.648438 -3.421875 5.6875 -3.382812 5.6875 -3.3125 C 5.6875 -3.238281 5.640625 -3.132812 5.546875 -3 C 5.210938 -2.5625 4.851562 -2.15625 4.46875 -1.78125 C 4.082031 -1.414062 3.671875 -1.078125 3.234375 -0.765625 C 2.316406 -0.0976562 1.539062 0.234375 0.90625 0.234375 Z M 1.015625 -2.453125 C 1.472656 -2.453125 2.0625 -2.675781 2.78125 -3.125 C 3.019531 -3.289062 3.253906 -3.476562 3.484375 -3.6875 C 3.722656 -3.894531 3.914062 -4.101562 4.0625 -4.3125 C 4.21875 -4.53125 4.296875 -4.722656 4.296875 -4.890625 C 4.296875 -5.046875 4.171875 -5.125 3.921875 -5.125 C 3.554688 -5.125 3.050781 -4.859375 2.40625 -4.328125 C 2.101562 -4.066406 1.804688 -3.78125 1.515625 -3.46875 C 1.234375 -3.15625 0.988281 -2.828125 0.78125 -2.484375 C 0.851562 -2.460938 0.929688 -2.453125 1.015625 -2.453125 Z M 1.015625 -2.453125 "/></g></g></g><g fill="#fbcc06" fill-opacity="1"><g transform="translate(178.485491, 204.768774)"><g><path d="M 1.359375 0.03125 C 1.015625 0.03125 0.691406 -0.0507812 0.390625 -0.21875 C 0.0976562 -0.394531 -0.046875 -0.6875 -0.046875 -1.09375 C -0.046875 -1.65625 0.148438 -2.320312 0.546875 -3.09375 C 0.941406 -3.863281 1.394531 -4.664062 1.90625 -5.5 C 3.300781 -7.769531 4.289062 -8.90625 4.875 -8.90625 C 5 -8.90625 5.125 -8.859375 5.25 -8.765625 C 5.375 -8.679688 5.441406 -8.582031 5.453125 -8.46875 L 4.203125 -6.796875 C 3.710938 -6.140625 3.269531 -5.53125 2.875 -4.96875 C 2.476562 -4.414062 2.140625 -3.921875 1.859375 -3.484375 C 1.710938 -3.253906 1.550781 -2.992188 1.375 -2.703125 C 1.195312 -2.421875 1.039062 -2.128906 0.90625 -1.828125 C 0.769531 -1.523438 0.703125 -1.21875 0.703125 -0.90625 C 0.703125 -0.769531 0.742188 -0.644531 0.828125 -0.53125 C 0.910156 -0.414062 1.054688 -0.359375 1.265625 -0.359375 C 1.648438 -0.359375 2.148438 -0.5625 2.765625 -0.96875 C 3.390625 -1.382812 4.003906 -1.957031 4.609375 -2.6875 C 4.671875 -2.75 4.738281 -2.8125 4.8125 -2.875 C 4.882812 -2.9375 4.941406 -2.96875 4.984375 -2.96875 C 5.046875 -2.96875 5.078125 -2.929688 5.078125 -2.859375 C 5.078125 -2.828125 5.035156 -2.757812 4.953125 -2.65625 C 4.878906 -2.550781 4.816406 -2.46875 4.765625 -2.40625 L 4.34375 -1.9375 C 4.101562 -1.664062 3.816406 -1.375 3.484375 -1.0625 C 3.160156 -0.757812 2.816406 -0.5 2.453125 -0.28125 C 2.085938 -0.0703125 1.722656 0.03125 1.359375 0.03125 Z M 1.359375 0.03125 "/></g></g></g><g fill="#fbcc06" fill-opacity="1"><g transform="translate(182.827029, 204.768774)"><g><path d="M 1.359375 0.03125 C 1.015625 0.03125 0.691406 -0.0507812 0.390625 -0.21875 C 0.0976562 -0.394531 -0.046875 -0.6875 -0.046875 -1.09375 C -0.046875 -1.65625 0.148438 -2.320312 0.546875 -3.09375 C 0.941406 -3.863281 1.394531 -4.664062 1.90625 -5.5 C 3.300781 -7.769531 4.289062 -8.90625 4.875 -8.90625 C 5 -8.90625 5.125 -8.859375 5.25 -8.765625 C 5.375 -8.679688 5.441406 -8.582031 5.453125 -8.46875 L 4.203125 -6.796875 C 3.710938 -6.140625 3.269531 -5.53125 2.875 -4.96875 C 2.476562 -4.414062 2.140625 -3.921875 1.859375 -3.484375 C 1.710938 -3.253906 1.550781 -2.992188 1.375 -2.703125 C 1.195312 -2.421875 1.039062 -2.128906 0.90625 -1.828125 C 0.769531 -1.523438 0.703125 -1.21875 0.703125 -0.90625 C 0.703125 -0.769531 0.742188 -0.644531 0.828125 -0.53125 C 0.910156 -0.414062 1.054688 -0.359375 1.265625 -0.359375 C 1.648438 -0.359375 2.148438 -0.5625 2.765625 -0.96875 C 3.390625 -1.382812 4.003906 -1.957031 4.609375 -2.6875 C 4.671875 -2.75 4.738281 -2.8125 4.8125 -2.875 C 4.882812 -2.9375 4.941406 -2.96875 4.984375 -2.96875 C 5.046875 -2.96875 5.078125 -2.929688 5.078125 -2.859375 C 5.078125 -2.828125 5.035156 -2.757812 4.953125 -2.65625 C 4.878906 -2.550781 4.816406 -2.46875 4.765625 -2.40625 L 4.34375 -1.9375 C 4.101562 -1.664062 3.816406 -1.375 3.484375 -1.0625 C 3.160156 -0.757812 2.816406 -0.5 2.453125 -0.28125 C 2.085938 -0.0703125 1.722656 0.03125 1.359375 0.03125 Z M 1.359375 0.03125 "/></g></g></g><g fill="#fbcc06" fill-opacity="1"><g transform="translate(187.168566, 204.768774)"><g/></g></g><g fill="#fbcc06" fill-opacity="1"><g transform="translate(190.70612, 204.768774)"><g><path d="M -3.03125 3.671875 C -3.394531 3.671875 -3.703125 3.519531 -3.953125 3.21875 C -4.203125 2.914062 -4.332031 2.59375 -4.34375 2.25 C -4.3125 2.101562 -4.257812 2.03125 -4.1875 2.03125 C -4.113281 2.03125 -4.070312 2.125 -4.0625 2.3125 C -4.050781 2.5 -3.953125 2.679688 -3.765625 2.859375 C -3.585938 3.035156 -3.410156 3.125 -3.234375 3.125 C -2.222656 3.125 -1.300781 2.5 -0.46875 1.25 C -0.238281 0.914062 0.0390625 0.429688 0.375 -0.203125 C 0.707031 -0.835938 1.078125 -1.640625 1.484375 -2.609375 L 2.453125 -4.9375 C 1.253906 -4.945312 0.65625 -5.085938 0.65625 -5.359375 C 0.65625 -5.492188 0.710938 -5.597656 0.828125 -5.671875 C 0.953125 -5.753906 1.050781 -5.796875 1.125 -5.796875 C 1.132812 -5.796875 1.28125 -5.789062 1.5625 -5.78125 C 1.851562 -5.78125 2.269531 -5.769531 2.8125 -5.75 C 3.976562 -8.351562 5.050781 -9.65625 6.03125 -9.65625 C 6.40625 -9.65625 6.78125 -9.472656 7.15625 -9.109375 C 7.25 -9.015625 7.296875 -8.890625 7.296875 -8.734375 C 7.296875 -8.367188 7.1875 -8.1875 6.96875 -8.1875 C 6.90625 -8.1875 6.847656 -8.234375 6.796875 -8.328125 C 6.742188 -8.410156 6.664062 -8.476562 6.5625 -8.53125 C 6.457031 -8.582031 6.351562 -8.609375 6.25 -8.609375 C 5.894531 -8.609375 5.582031 -8.472656 5.3125 -8.203125 C 5.050781 -7.941406 4.800781 -7.597656 4.5625 -7.171875 C 4.332031 -6.742188 4.085938 -6.269531 3.828125 -5.75 L 4.046875 -5.75 C 5.335938 -5.75 6.195312 -5.769531 6.625 -5.8125 C 6.675781 -5.800781 6.703125 -5.773438 6.703125 -5.734375 C 6.703125 -5.640625 6.28125 -5.507812 5.4375 -5.34375 C 5.101562 -5.289062 4.773438 -5.234375 4.453125 -5.171875 C 4.128906 -5.117188 3.800781 -5.0625 3.46875 -5 C 3.3125 -4.664062 3.117188 -4.269531 2.890625 -3.8125 C 2.671875 -3.351562 2.414062 -2.84375 2.125 -2.28125 C 1.5625 -1.238281 1.101562 -0.410156 0.75 0.203125 C 0.394531 0.828125 0.144531 1.242188 0 1.453125 C -1.039062 2.929688 -2.050781 3.671875 -3.03125 3.671875 Z M -3.03125 3.671875 "/></g></g></g><g fill="#fbcc06" fill-opacity="1"><g transform="translate(195.029788, 204.768774)"><g><path d="M 1.203125 0.09375 C 0.910156 0.09375 0.617188 -0.00390625 0.328125 -0.203125 C 0.046875 -0.410156 -0.109375 -0.648438 -0.140625 -0.921875 C -0.265625 -1.847656 0.3125 -2.941406 1.59375 -4.203125 C 2.851562 -5.460938 3.988281 -6.09375 5 -6.09375 C 5.28125 -6.09375 5.5 -6.03125 5.65625 -5.90625 C 5.738281 -5.820312 5.800781 -5.707031 5.84375 -5.5625 C 5.882812 -5.414062 5.914062 -5.34375 5.9375 -5.34375 C 5.976562 -5.34375 6.015625 -5.347656 6.046875 -5.359375 C 6.085938 -5.378906 6.132812 -5.390625 6.1875 -5.390625 C 6.332031 -5.390625 6.457031 -5.335938 6.5625 -5.234375 C 6.664062 -5.128906 6.722656 -5.035156 6.734375 -4.953125 C 6.742188 -4.929688 6.363281 -4.34375 5.59375 -3.1875 C 4.820312 -2.050781 4.472656 -1.28125 4.546875 -0.875 C 4.597656 -0.601562 4.726562 -0.46875 4.9375 -0.46875 C 5.550781 -0.46875 6.679688 -1.492188 8.328125 -3.546875 C 8.367188 -3.585938 8.40625 -3.609375 8.4375 -3.609375 C 8.5 -3.609375 8.53125 -3.566406 8.53125 -3.484375 C 8.53125 -3.390625 8.472656 -3.269531 8.359375 -3.125 C 6.847656 -1.09375 5.6875 -0.078125 4.875 -0.078125 C 4.769531 -0.078125 4.671875 -0.09375 4.578125 -0.125 C 4.054688 -0.320312 3.796875 -0.71875 3.796875 -1.3125 C 3.796875 -1.507812 3.816406 -1.707031 3.859375 -1.90625 L 2.75 -0.84375 C 2.414062 -0.507812 2.113281 -0.269531 1.84375 -0.125 C 1.582031 0.0195312 1.367188 0.09375 1.203125 0.09375 Z M 1.03125 -0.296875 C 1.726562 -0.296875 2.671875 -1.054688 3.859375 -2.578125 L 5.75 -5.1875 C 5.65625 -5.351562 5.503906 -5.4375 5.296875 -5.4375 C 4.566406 -5.4375 3.582031 -4.851562 2.34375 -3.6875 C 1.050781 -2.488281 0.472656 -1.503906 0.609375 -0.734375 C 0.671875 -0.441406 0.8125 -0.296875 1.03125 -0.296875 Z M 1.03125 -0.296875 "/></g></g></g><g fill="#fbcc06" fill-opacity="1"><g transform="translate(202.390744, 204.768774)"><g><path d="M 2.0625 0.03125 C 1.5 0.03125 1.082031 -0.148438 0.8125 -0.515625 C 0.539062 -0.890625 0.320312 -1.40625 0.15625 -2.0625 C -0.0507812 -1.84375 -0.195312 -1.734375 -0.28125 -1.734375 C -0.34375 -1.734375 -0.375 -1.78125 -0.375 -1.875 C -0.375 -1.945312 -0.34375 -2.015625 -0.28125 -2.078125 C -0.28125 -2.078125 -0.128906 -2.257812 0.171875 -2.625 C 0.472656 -3 0.988281 -3.519531 1.71875 -4.1875 L 3.96875 -6.296875 C 4.28125 -6.585938 4.523438 -6.8125 4.703125 -6.96875 C 4.890625 -7.125 5.023438 -7.203125 5.109375 -7.203125 C 5.492188 -7.203125 5.6875 -7.0625 5.6875 -6.78125 C 5.6875 -6.632812 5.609375 -6.46875 5.453125 -6.28125 C 5.328125 -6.132812 5.238281 -6.019531 5.1875 -5.9375 C 5.132812 -5.863281 5.101562 -5.820312 5.09375 -5.8125 C 4.875 -5.4375 4.675781 -4.773438 4.5 -3.828125 C 4.375 -3.117188 4.257812 -2.535156 4.15625 -2.078125 C 4.0625 -1.628906 3.988281 -1.304688 3.9375 -1.109375 C 4.4375 -1.117188 4.929688 -1.269531 5.421875 -1.5625 C 5.910156 -1.863281 6.429688 -2.351562 6.984375 -3.03125 C 7.015625 -3.0625 7.050781 -3.097656 7.09375 -3.140625 C 7.144531 -3.191406 7.191406 -3.21875 7.234375 -3.21875 C 7.304688 -3.21875 7.34375 -3.1875 7.34375 -3.125 C 7.34375 -3.0625 7.320312 -3 7.28125 -2.9375 C 7.25 -2.882812 7.21875 -2.832031 7.1875 -2.78125 C 6.8125 -2.34375 6.460938 -1.984375 6.140625 -1.703125 C 5.828125 -1.421875 5.488281 -1.195312 5.125 -1.03125 C 4.769531 -0.875 4.347656 -0.742188 3.859375 -0.640625 L 3.28125 -0.265625 C 3.132812 -0.160156 2.953125 -0.0820312 2.734375 -0.03125 C 2.515625 0.0078125 2.289062 0.03125 2.0625 0.03125 Z M 2.265625 -0.875 C 2.546875 -0.875 2.773438 -0.941406 2.953125 -1.078125 C 3.078125 -1.148438 3.203125 -1.347656 3.328125 -1.671875 C 3.453125 -1.992188 3.578125 -2.398438 3.703125 -2.890625 C 3.796875 -3.304688 3.867188 -3.710938 3.921875 -4.109375 C 3.972656 -4.515625 4.023438 -4.898438 4.078125 -5.265625 L 4.140625 -5.875 C 3.867188 -5.675781 3.523438 -5.382812 3.109375 -5 C 2.691406 -4.625 2.28125 -4.226562 1.875 -3.8125 C 1.46875 -3.394531 1.203125 -3.085938 1.078125 -2.890625 C 0.960938 -2.691406 0.898438 -2.546875 0.890625 -2.453125 C 0.847656 -1.972656 0.960938 -1.585938 1.234375 -1.296875 C 1.515625 -1.015625 1.859375 -0.875 2.265625 -0.875 Z M 2.265625 -0.875 "/></g></g></g><g fill="#fbcc06" fill-opacity="1"><g transform="translate(208.804787, 204.768774)"><g><path d="M 1.109375 0.109375 C 0.722656 0.109375 0.421875 0.015625 0.203125 -0.171875 C -0.015625 -0.359375 -0.125 -0.6875 -0.125 -1.15625 C -0.125 -1.4375 -0.0390625 -1.785156 0.125 -2.203125 C 0.289062 -2.628906 0.5 -3.085938 0.75 -3.578125 C 1 -4.066406 1.25 -4.546875 1.5 -5.015625 C 1.34375 -4.984375 1.207031 -4.96875 1.09375 -4.96875 C 0.726562 -4.96875 0.546875 -5.101562 0.546875 -5.375 C 0.546875 -5.507812 0.597656 -5.613281 0.703125 -5.6875 C 0.804688 -5.757812 0.898438 -5.800781 0.984375 -5.8125 C 0.984375 -5.8125 1 -5.8125 1.03125 -5.8125 C 1.0625 -5.8125 1.097656 -5.816406 1.140625 -5.828125 L 2.1875 -5.828125 C 2.394531 -6.097656 2.613281 -6.390625 2.84375 -6.703125 C 3.164062 -7.109375 3.421875 -7.347656 3.609375 -7.421875 L 3.671875 -7.421875 C 3.753906 -7.421875 3.867188 -7.378906 4.015625 -7.296875 C 4.210938 -7.179688 4.3125 -7.070312 4.3125 -6.96875 C 4.3125 -6.8125 4.023438 -6.414062 3.453125 -5.78125 C 3.554688 -5.757812 3.707031 -5.75 3.90625 -5.75 C 4.113281 -5.75 4.367188 -5.75 4.671875 -5.75 C 4.804688 -5.75 5.007812 -5.75 5.28125 -5.75 C 5.550781 -5.75 5.832031 -5.753906 6.125 -5.765625 C 6.414062 -5.773438 6.664062 -5.78125 6.875 -5.78125 C 7.09375 -5.789062 7.210938 -5.796875 7.234375 -5.796875 C 7.273438 -5.785156 7.296875 -5.765625 7.296875 -5.734375 C 7.296875 -5.628906 6.59375 -5.488281 5.1875 -5.3125 C 4.382812 -5.195312 3.769531 -5.109375 3.34375 -5.046875 C 2.925781 -4.992188 2.695312 -4.960938 2.65625 -4.953125 C 2.488281 -4.804688 2.285156 -4.5625 2.046875 -4.21875 C 1.816406 -3.875 1.582031 -3.484375 1.34375 -3.046875 C 1.101562 -2.617188 0.898438 -2.210938 0.734375 -1.828125 C 0.578125 -1.441406 0.5 -1.140625 0.5 -0.921875 C 0.5 -0.734375 0.566406 -0.578125 0.703125 -0.453125 C 0.847656 -0.328125 1.082031 -0.265625 1.40625 -0.265625 C 1.625 -0.265625 1.878906 -0.3125 2.171875 -0.40625 C 2.472656 -0.5 2.757812 -0.609375 3.03125 -0.734375 C 3.300781 -0.859375 3.492188 -0.957031 3.609375 -1.03125 C 3.921875 -1.226562 4.265625 -1.484375 4.640625 -1.796875 C 5.015625 -2.109375 5.382812 -2.46875 5.75 -2.875 C 5.914062 -3.039062 6.03125 -3.125 6.09375 -3.125 C 6.132812 -3.125 6.15625 -3.101562 6.15625 -3.0625 C 6.15625 -2.957031 6.0625 -2.800781 5.875 -2.59375 C 5.59375 -2.25 5.273438 -1.914062 4.921875 -1.59375 C 4.566406 -1.28125 4.175781 -0.992188 3.75 -0.734375 C 3.257812 -0.429688 2.789062 -0.210938 2.34375 -0.078125 C 1.90625 0.046875 1.492188 0.109375 1.109375 0.109375 Z M 1.109375 0.109375 "/></g></g></g><g fill="#fbcc06" fill-opacity="1"><g transform="translate(214.111106, 204.768774)"><g/></g></g><g fill="#fbcc06" fill-opacity="1"><g transform="translate(217.648661, 204.768774)"><g><path d="M 3.8125 1.9375 C 2.875 1.9375 2.128906 1.71875 1.578125 1.28125 C 1.035156 0.84375 0.765625 0.210938 0.765625 -0.609375 C 0.765625 -1.203125 0.890625 -1.765625 1.140625 -2.296875 C 1.398438 -2.828125 1.75 -3.300781 2.1875 -3.71875 C 2.632812 -4.132812 3.140625 -4.460938 3.703125 -4.703125 C 4.273438 -4.941406 4.867188 -5.0625 5.484375 -5.0625 C 6.117188 -5.0625 6.617188 -4.914062 6.984375 -4.625 C 7.347656 -4.34375 7.53125 -3.957031 7.53125 -3.46875 C 7.53125 -3.113281 7.296875 -2.648438 6.828125 -2.078125 C 6.359375 -1.503906 6.125 -1.3125 6.125 -1.5 C 6.125 -1.550781 6.144531 -1.597656 6.1875 -1.640625 C 6.5625 -2.203125 6.75 -2.726562 6.75 -3.21875 C 6.75 -3.65625 6.609375 -4.003906 6.328125 -4.265625 C 6.054688 -4.535156 5.691406 -4.671875 5.234375 -4.671875 C 4.734375 -4.671875 4.253906 -4.546875 3.796875 -4.296875 C 3.335938 -4.054688 2.925781 -3.734375 2.5625 -3.328125 C 2.207031 -2.921875 1.929688 -2.472656 1.734375 -1.984375 C 1.535156 -1.492188 1.4375 -1.007812 1.4375 -0.53125 C 1.4375 0.125 1.644531 0.617188 2.0625 0.953125 C 2.488281 1.296875 3.046875 1.46875 3.734375 1.46875 C 4.441406 1.46875 5.117188 1.335938 5.765625 1.078125 C 6.410156 0.828125 6.988281 0.460938 7.5 -0.015625 C 8.113281 -0.585938 8.726562 -1.421875 9.34375 -2.515625 L 10.90625 -5.328125 C 11.3125 -5.972656 11.734375 -6.75 12.171875 -7.65625 C 12.609375 -8.570312 13.070312 -9.617188 13.5625 -10.796875 C 11.851562 -10.816406 10.1875 -10.648438 8.5625 -10.296875 C 6.832031 -9.921875 5.550781 -9.410156 4.71875 -8.765625 C 4.363281 -8.492188 4.1875 -8.21875 4.1875 -7.9375 C 4.1875 -7.6875 4.320312 -7.476562 4.59375 -7.3125 C 4.875 -7.15625 5.234375 -7.078125 5.671875 -7.078125 C 5.921875 -7.078125 6.21875 -7.113281 6.5625 -7.1875 C 6.90625 -7.257812 7.238281 -7.359375 7.5625 -7.484375 C 7.882812 -7.609375 8.128906 -7.75 8.296875 -7.90625 C 8.410156 -8 8.492188 -8.046875 8.546875 -8.046875 C 8.640625 -8.046875 8.65625 -8 8.59375 -7.90625 C 8.34375 -7.601562 8.019531 -7.347656 7.625 -7.140625 C 7.226562 -6.941406 6.804688 -6.789062 6.359375 -6.6875 C 5.921875 -6.59375 5.507812 -6.546875 5.125 -6.546875 C 4.539062 -6.546875 4.082031 -6.660156 3.75 -6.890625 C 3.425781 -7.117188 3.265625 -7.421875 3.265625 -7.796875 C 3.265625 -8.222656 3.484375 -8.640625 3.921875 -9.046875 C 4.722656 -9.828125 6.171875 -10.410156 8.265625 -10.796875 C 9.066406 -10.941406 9.929688 -11.046875 10.859375 -11.109375 C 11.796875 -11.171875 12.785156 -11.195312 13.828125 -11.1875 C 14.097656 -11.414062 14.351562 -11.53125 14.59375 -11.53125 C 14.820312 -11.53125 14.910156 -11.40625 14.859375 -11.15625 C 15.609375 -11.101562 16.363281 -11.003906 17.125 -10.859375 C 17.894531 -10.722656 18.597656 -10.523438 19.234375 -10.265625 C 19.878906 -10.015625 20.394531 -9.703125 20.78125 -9.328125 C 21.175781 -8.953125 21.375 -8.503906 21.375 -7.984375 C 21.375 -7.441406 21.191406 -6.921875 20.828125 -6.421875 C 20.460938 -5.929688 20 -5.492188 19.4375 -5.109375 C 18.875 -4.734375 18.28125 -4.429688 17.65625 -4.203125 C 17.082031 -3.992188 16.472656 -3.832031 15.828125 -3.71875 C 15.179688 -3.601562 14.539062 -3.546875 13.90625 -3.546875 C 13.425781 -3.546875 12.96875 -3.578125 12.53125 -3.640625 C 12.101562 -3.710938 11.707031 -3.828125 11.34375 -3.984375 C 10.625 -2.921875 10.019531 -2.054688 9.53125 -1.390625 C 9.050781 -0.722656 8.679688 -0.257812 8.421875 0 C 7.128906 1.289062 5.59375 1.9375 3.8125 1.9375 Z M 13.453125 -3.96875 C 13.898438 -3.96875 14.335938 -4.007812 14.765625 -4.09375 C 15.203125 -4.1875 15.671875 -4.3125 16.171875 -4.46875 C 16.671875 -4.632812 17.175781 -4.84375 17.6875 -5.09375 C 18.207031 -5.351562 18.679688 -5.644531 19.109375 -5.96875 C 19.535156 -6.300781 19.878906 -6.65625 20.140625 -7.03125 C 20.398438 -7.40625 20.53125 -7.785156 20.53125 -8.171875 C 20.53125 -8.597656 20.351562 -8.96875 20 -9.28125 C 19.644531 -9.601562 19.175781 -9.863281 18.59375 -10.0625 C 18.007812 -10.269531 17.375 -10.425781 16.6875 -10.53125 C 16.007812 -10.644531 15.359375 -10.722656 14.734375 -10.765625 L 14.15625 -8.96875 C 13.957031 -8.457031 13.671875 -7.863281 13.296875 -7.1875 C 12.929688 -6.507812 12.476562 -5.742188 11.9375 -4.890625 L 11.546875 -4.296875 C 11.628906 -4.242188 11.71875 -4.203125 11.8125 -4.171875 C 11.914062 -4.140625 12.03125 -4.113281 12.15625 -4.09375 C 12.382812 -4.039062 12.601562 -4.003906 12.8125 -3.984375 C 13.03125 -3.972656 13.242188 -3.96875 13.453125 -3.96875 Z M 13.453125 -3.96875 "/></g></g></g><g fill="#fbcc06" fill-opacity="1"><g transform="translate(236.533454, 204.768774)"><g><path d="M 1.203125 0.09375 C 0.910156 0.09375 0.617188 -0.00390625 0.328125 -0.203125 C 0.046875 -0.410156 -0.109375 -0.648438 -0.140625 -0.921875 C -0.265625 -1.847656 0.3125 -2.941406 1.59375 -4.203125 C 2.851562 -5.460938 3.988281 -6.09375 5 -6.09375 C 5.28125 -6.09375 5.5 -6.03125 5.65625 -5.90625 C 5.738281 -5.820312 5.800781 -5.707031 5.84375 -5.5625 C 5.882812 -5.414062 5.914062 -5.34375 5.9375 -5.34375 C 5.976562 -5.34375 6.015625 -5.347656 6.046875 -5.359375 C 6.085938 -5.378906 6.132812 -5.390625 6.1875 -5.390625 C 6.332031 -5.390625 6.457031 -5.335938 6.5625 -5.234375 C 6.664062 -5.128906 6.722656 -5.035156 6.734375 -4.953125 C 6.742188 -4.929688 6.363281 -4.34375 5.59375 -3.1875 C 4.820312 -2.050781 4.472656 -1.28125 4.546875 -0.875 C 4.597656 -0.601562 4.726562 -0.46875 4.9375 -0.46875 C 5.550781 -0.46875 6.679688 -1.492188 8.328125 -3.546875 C 8.367188 -3.585938 8.40625 -3.609375 8.4375 -3.609375 C 8.5 -3.609375 8.53125 -3.566406 8.53125 -3.484375 C 8.53125 -3.390625 8.472656 -3.269531 8.359375 -3.125 C 6.847656 -1.09375 5.6875 -0.078125 4.875 -0.078125 C 4.769531 -0.078125 4.671875 -0.09375 4.578125 -0.125 C 4.054688 -0.320312 3.796875 -0.71875 3.796875 -1.3125 C 3.796875 -1.507812 3.816406 -1.707031 3.859375 -1.90625 L 2.75 -0.84375 C 2.414062 -0.507812 2.113281 -0.269531 1.84375 -0.125 C 1.582031 0.0195312 1.367188 0.09375 1.203125 0.09375 Z M 1.03125 -0.296875 C 1.726562 -0.296875 2.671875 -1.054688 3.859375 -2.578125 L 5.75 -5.1875 C 5.65625 -5.351562 5.503906 -5.4375 5.296875 -5.4375 C 4.566406 -5.4375 3.582031 -4.851562 2.34375 -3.6875 C 1.050781 -2.488281 0.472656 -1.503906 0.609375 -0.734375 C 0.671875 -0.441406 0.8125 -0.296875 1.03125 -0.296875 Z M 1.03125 -0.296875 "/></g></g></g><g fill="#fbcc06" fill-opacity="1"><g transform="translate(243.894409, 204.768774)"><g><path d="M 0.40625 3.671875 C 0.03125 3.671875 -0.300781 3.507812 -0.59375 3.1875 C -0.875 2.851562 -1.007812 2.484375 -1 2.078125 C -0.851562 2.253906 -0.660156 2.460938 -0.421875 2.703125 C -0.117188 2.992188 0.179688 3.140625 0.484375 3.140625 C 1.160156 3.140625 1.894531 2.597656 2.6875 1.515625 C 2.957031 1.140625 3.238281 0.695312 3.53125 0.1875 C 3.820312 -0.320312 4.097656 -0.882812 4.359375 -1.5 L 5.046875 -3.140625 L 2.40625 -1.09375 C 1.601562 -0.457031 0.957031 -0.140625 0.46875 -0.140625 C 0.207031 -0.140625 0 -0.234375 -0.15625 -0.421875 C -0.3125 -0.617188 -0.390625 -0.816406 -0.390625 -1.015625 C -0.390625 -1.523438 0.046875 -2.367188 0.921875 -3.546875 C 1.804688 -4.722656 2.46875 -5.3125 2.90625 -5.3125 C 3.28125 -5.3125 3.46875 -5.171875 3.46875 -4.890625 C 3.46875 -4.785156 2.9375 -4.164062 1.875 -3.03125 C 0.820312 -1.914062 0.296875 -1.160156 0.296875 -0.765625 C 0.296875 -0.609375 0.398438 -0.53125 0.609375 -0.53125 C 0.992188 -0.53125 1.820312 -1.023438 3.09375 -2.015625 C 3.613281 -2.429688 4.078125 -2.8125 4.484375 -3.15625 C 4.890625 -3.507812 5.226562 -3.820312 5.5 -4.09375 C 5.601562 -4.207031 5.703125 -4.320312 5.796875 -4.4375 C 5.890625 -4.550781 5.976562 -4.671875 6.0625 -4.796875 C 6.289062 -5.054688 6.515625 -5.1875 6.734375 -5.1875 C 7.054688 -5.1875 7.21875 -5.054688 7.21875 -4.796875 C 7.21875 -4.742188 6.96875 -4.347656 6.46875 -3.609375 C 6.207031 -3.203125 6 -2.890625 5.84375 -2.671875 C 5.6875 -2.453125 5.597656 -2.3125 5.578125 -2.25 C 5.203125 -1.539062 4.632812 -0.5 3.875 0.875 C 2.71875 2.738281 1.5625 3.671875 0.40625 3.671875 Z M 0.40625 3.671875 "/></g></g></g><g fill="#fbcc06" fill-opacity="1"><g transform="translate(250.504978, 204.768774)"><g/></g></g><g fill="#fbcc06" fill-opacity="1"><g transform="translate(254.042532, 204.768774)"><g><path d="M -3.03125 3.671875 C -3.394531 3.671875 -3.703125 3.519531 -3.953125 3.21875 C -4.203125 2.914062 -4.332031 2.59375 -4.34375 2.25 C -4.3125 2.101562 -4.257812 2.03125 -4.1875 2.03125 C -4.113281 2.03125 -4.070312 2.125 -4.0625 2.3125 C -4.050781 2.5 -3.953125 2.679688 -3.765625 2.859375 C -3.585938 3.035156 -3.410156 3.125 -3.234375 3.125 C -2.222656 3.125 -1.300781 2.5 -0.46875 1.25 C -0.238281 0.914062 0.0390625 0.429688 0.375 -0.203125 C 0.707031 -0.835938 1.078125 -1.640625 1.484375 -2.609375 L 2.453125 -4.9375 C 1.253906 -4.945312 0.65625 -5.085938 0.65625 -5.359375 C 0.65625 -5.492188 0.710938 -5.597656 0.828125 -5.671875 C 0.953125 -5.753906 1.050781 -5.796875 1.125 -5.796875 C 1.132812 -5.796875 1.28125 -5.789062 1.5625 -5.78125 C 1.851562 -5.78125 2.269531 -5.769531 2.8125 -5.75 C 3.976562 -8.351562 5.050781 -9.65625 6.03125 -9.65625 C 6.40625 -9.65625 6.78125 -9.472656 7.15625 -9.109375 C 7.25 -9.015625 7.296875 -8.890625 7.296875 -8.734375 C 7.296875 -8.367188 7.1875 -8.1875 6.96875 -8.1875 C 6.90625 -8.1875 6.847656 -8.234375 6.796875 -8.328125 C 6.742188 -8.410156 6.664062 -8.476562 6.5625 -8.53125 C 6.457031 -8.582031 6.351562 -8.609375 6.25 -8.609375 C 5.894531 -8.609375 5.582031 -8.472656 5.3125 -8.203125 C 5.050781 -7.941406 4.800781 -7.597656 4.5625 -7.171875 C 4.332031 -6.742188 4.085938 -6.269531 3.828125 -5.75 L 4.046875 -5.75 C 5.335938 -5.75 6.195312 -5.769531 6.625 -5.8125 C 6.675781 -5.800781 6.703125 -5.773438 6.703125 -5.734375 C 6.703125 -5.640625 6.28125 -5.507812 5.4375 -5.34375 C 5.101562 -5.289062 4.773438 -5.234375 4.453125 -5.171875 C 4.128906 -5.117188 3.800781 -5.0625 3.46875 -5 C 3.3125 -4.664062 3.117188 -4.269531 2.890625 -3.8125 C 2.671875 -3.351562 2.414062 -2.84375 2.125 -2.28125 C 1.5625 -1.238281 1.101562 -0.410156 0.75 0.203125 C 0.394531 0.828125 0.144531 1.242188 0 1.453125 C -1.039062 2.929688 -2.050781 3.671875 -3.03125 3.671875 Z M -3.03125 3.671875 "/></g></g></g><g fill="#fbcc06" fill-opacity="1"><g transform="translate(258.3662, 204.768774)"><g><path d="M 1.203125 0.09375 C 0.910156 0.09375 0.617188 -0.00390625 0.328125 -0.203125 C 0.046875 -0.410156 -0.109375 -0.648438 -0.140625 -0.921875 C -0.265625 -1.847656 0.3125 -2.941406 1.59375 -4.203125 C 2.851562 -5.460938 3.988281 -6.09375 5 -6.09375 C 5.28125 -6.09375 5.5 -6.03125 5.65625 -5.90625 C 5.738281 -5.820312 5.800781 -5.707031 5.84375 -5.5625 C 5.882812 -5.414062 5.914062 -5.34375 5.9375 -5.34375 C 5.976562 -5.34375 6.015625 -5.347656 6.046875 -5.359375 C 6.085938 -5.378906 6.132812 -5.390625 6.1875 -5.390625 C 6.332031 -5.390625 6.457031 -5.335938 6.5625 -5.234375 C 6.664062 -5.128906 6.722656 -5.035156 6.734375 -4.953125 C 6.742188 -4.929688 6.363281 -4.34375 5.59375 -3.1875 C 4.820312 -2.050781 4.472656 -1.28125 4.546875 -0.875 C 4.597656 -0.601562 4.726562 -0.46875 4.9375 -0.46875 C 5.550781 -0.46875 6.679688 -1.492188 8.328125 -3.546875 C 8.367188 -3.585938 8.40625 -3.609375 8.4375 -3.609375 C 8.5 -3.609375 8.53125 -3.566406 8.53125 -3.484375 C 8.53125 -3.390625 8.472656 -3.269531 8.359375 -3.125 C 6.847656 -1.09375 5.6875 -0.078125 4.875 -0.078125 C 4.769531 -0.078125 4.671875 -0.09375 4.578125 -0.125 C 4.054688 -0.320312 3.796875 -0.71875 3.796875 -1.3125 C 3.796875 -1.507812 3.816406 -1.707031 3.859375 -1.90625 L 2.75 -0.84375 C 2.414062 -0.507812 2.113281 -0.269531 1.84375 -0.125 C 1.582031 0.0195312 1.367188 0.09375 1.203125 0.09375 Z M 1.03125 -0.296875 C 1.726562 -0.296875 2.671875 -1.054688 3.859375 -2.578125 L 5.75 -5.1875 C 5.65625 -5.351562 5.503906 -5.4375 5.296875 -5.4375 C 4.566406 -5.4375 3.582031 -4.851562 2.34375 -3.6875 C 1.050781 -2.488281 0.472656 -1.503906 0.609375 -0.734375 C 0.671875 -0.441406 0.8125 -0.296875 1.03125 -0.296875 Z M 1.03125 -0.296875 "/></g></g></g><g fill="#fbcc06" fill-opacity="1"><g transform="translate(265.727156, 204.768774)"><g><path d="M 2.0625 0.03125 C 1.5 0.03125 1.082031 -0.148438 0.8125 -0.515625 C 0.539062 -0.890625 0.320312 -1.40625 0.15625 -2.0625 C -0.0507812 -1.84375 -0.195312 -1.734375 -0.28125 -1.734375 C -0.34375 -1.734375 -0.375 -1.78125 -0.375 -1.875 C -0.375 -1.945312 -0.34375 -2.015625 -0.28125 -2.078125 C -0.28125 -2.078125 -0.128906 -2.257812 0.171875 -2.625 C 0.472656 -3 0.988281 -3.519531 1.71875 -4.1875 L 3.96875 -6.296875 C 4.28125 -6.585938 4.523438 -6.8125 4.703125 -6.96875 C 4.890625 -7.125 5.023438 -7.203125 5.109375 -7.203125 C 5.492188 -7.203125 5.6875 -7.0625 5.6875 -6.78125 C 5.6875 -6.632812 5.609375 -6.46875 5.453125 -6.28125 C 5.328125 -6.132812 5.238281 -6.019531 5.1875 -5.9375 C 5.132812 -5.863281 5.101562 -5.820312 5.09375 -5.8125 C 4.875 -5.4375 4.675781 -4.773438 4.5 -3.828125 C 4.375 -3.117188 4.257812 -2.535156 4.15625 -2.078125 C 4.0625 -1.628906 3.988281 -1.304688 3.9375 -1.109375 C 4.4375 -1.117188 4.929688 -1.269531 5.421875 -1.5625 C 5.910156 -1.863281 6.429688 -2.351562 6.984375 -3.03125 C 7.015625 -3.0625 7.050781 -3.097656 7.09375 -3.140625 C 7.144531 -3.191406 7.191406 -3.21875 7.234375 -3.21875 C 7.304688 -3.21875 7.34375 -3.1875 7.34375 -3.125 C 7.34375 -3.0625 7.320312 -3 7.28125 -2.9375 C 7.25 -2.882812 7.21875 -2.832031 7.1875 -2.78125 C 6.8125 -2.34375 6.460938 -1.984375 6.140625 -1.703125 C 5.828125 -1.421875 5.488281 -1.195312 5.125 -1.03125 C 4.769531 -0.875 4.347656 -0.742188 3.859375 -0.640625 L 3.28125 -0.265625 C 3.132812 -0.160156 2.953125 -0.0820312 2.734375 -0.03125 C 2.515625 0.0078125 2.289062 0.03125 2.0625 0.03125 Z M 2.265625 -0.875 C 2.546875 -0.875 2.773438 -0.941406 2.953125 -1.078125 C 3.078125 -1.148438 3.203125 -1.347656 3.328125 -1.671875 C 3.453125 -1.992188 3.578125 -2.398438 3.703125 -2.890625 C 3.796875 -3.304688 3.867188 -3.710938 3.921875 -4.109375 C 3.972656 -4.515625 4.023438 -4.898438 4.078125 -5.265625 L 4.140625 -5.875 C 3.867188 -5.675781 3.523438 -5.382812 3.109375 -5 C 2.691406 -4.625 2.28125 -4.226562 1.875 -3.8125 C 1.46875 -3.394531 1.203125 -3.085938 1.078125 -2.890625 C 0.960938 -2.691406 0.898438 -2.546875 0.890625 -2.453125 C 0.847656 -1.972656 0.960938 -1.585938 1.234375 -1.296875 C 1.515625 -1.015625 1.859375 -0.875 2.265625 -0.875 Z M 2.265625 -0.875 "/></g></g></g><g fill="#fbcc06" fill-opacity="1"><g transform="translate(272.141199, 204.768774)"><g><path d="M 1.109375 0.109375 C 0.722656 0.109375 0.421875 0.015625 0.203125 -0.171875 C -0.015625 -0.359375 -0.125 -0.6875 -0.125 -1.15625 C -0.125 -1.4375 -0.0390625 -1.785156 0.125 -2.203125 C 0.289062 -2.628906 0.5 -3.085938 0.75 -3.578125 C 1 -4.066406 1.25 -4.546875 1.5 -5.015625 C 1.34375 -4.984375 1.207031 -4.96875 1.09375 -4.96875 C 0.726562 -4.96875 0.546875 -5.101562 0.546875 -5.375 C 0.546875 -5.507812 0.597656 -5.613281 0.703125 -5.6875 C 0.804688 -5.757812 0.898438 -5.800781 0.984375 -5.8125 C 0.984375 -5.8125 1 -5.8125 1.03125 -5.8125 C 1.0625 -5.8125 1.097656 -5.816406 1.140625 -5.828125 L 2.1875 -5.828125 C 2.394531 -6.097656 2.613281 -6.390625 2.84375 -6.703125 C 3.164062 -7.109375 3.421875 -7.347656 3.609375 -7.421875 L 3.671875 -7.421875 C 3.753906 -7.421875 3.867188 -7.378906 4.015625 -7.296875 C 4.210938 -7.179688 4.3125 -7.070312 4.3125 -6.96875 C 4.3125 -6.8125 4.023438 -6.414062 3.453125 -5.78125 C 3.554688 -5.757812 3.707031 -5.75 3.90625 -5.75 C 4.113281 -5.75 4.367188 -5.75 4.671875 -5.75 C 4.804688 -5.75 5.007812 -5.75 5.28125 -5.75 C 5.550781 -5.75 5.832031 -5.753906 6.125 -5.765625 C 6.414062 -5.773438 6.664062 -5.78125 6.875 -5.78125 C 7.09375 -5.789062 7.210938 -5.796875 7.234375 -5.796875 C 7.273438 -5.785156 7.296875 -5.765625 7.296875 -5.734375 C 7.296875 -5.628906 6.59375 -5.488281 5.1875 -5.3125 C 4.382812 -5.195312 3.769531 -5.109375 3.34375 -5.046875 C 2.925781 -4.992188 2.695312 -4.960938 2.65625 -4.953125 C 2.488281 -4.804688 2.285156 -4.5625 2.046875 -4.21875 C 1.816406 -3.875 1.582031 -3.484375 1.34375 -3.046875 C 1.101562 -2.617188 0.898438 -2.210938 0.734375 -1.828125 C 0.578125 -1.441406 0.5 -1.140625 0.5 -0.921875 C 0.5 -0.734375 0.566406 -0.578125 0.703125 -0.453125 C 0.847656 -0.328125 1.082031 -0.265625 1.40625 -0.265625 C 1.625 -0.265625 1.878906 -0.3125 2.171875 -0.40625 C 2.472656 -0.5 2.757812 -0.609375 3.03125 -0.734375 C 3.300781 -0.859375 3.492188 -0.957031 3.609375 -1.03125 C 3.921875 -1.226562 4.265625 -1.484375 4.640625 -1.796875 C 5.015625 -2.109375 5.382812 -2.46875 5.75 -2.875 C 5.914062 -3.039062 6.03125 -3.125 6.09375 -3.125 C 6.132812 -3.125 6.15625 -3.101562 6.15625 -3.0625 C 6.15625 -2.957031 6.0625 -2.800781 5.875 -2.59375 C 5.59375 -2.25 5.273438 -1.914062 4.921875 -1.59375 C 4.566406 -1.28125 4.175781 -0.992188 3.75 -0.734375 C 3.257812 -0.429688 2.789062 -0.210938 2.34375 -0.078125 C 1.90625 0.046875 1.492188 0.109375 1.109375 0.109375 Z M 1.109375 0.109375 "/></g></g></g><g fill="#fbcc06" fill-opacity="1"><g transform="translate(277.447518, 204.768774)"><g><path d="M 8.59375 0.015625 C 8.394531 0.015625 8.222656 -0.046875 8.078125 -0.171875 C 7.929688 -0.296875 7.859375 -0.441406 7.859375 -0.609375 C 7.859375 -0.953125 8.085938 -1.125 8.546875 -1.125 C 8.710938 -1.125 8.878906 -1.066406 9.046875 -0.953125 C 9.210938 -0.835938 9.296875 -0.691406 9.296875 -0.515625 C 9.296875 -0.367188 9.210938 -0.242188 9.046875 -0.140625 C 8.890625 -0.0351562 8.738281 0.015625 8.59375 0.015625 Z M 2.765625 0.015625 C 2.566406 0.015625 2.394531 -0.046875 2.25 -0.171875 C 2.101562 -0.296875 2.03125 -0.441406 2.03125 -0.609375 C 2.03125 -0.953125 2.257812 -1.125 2.71875 -1.125 C 2.882812 -1.125 3.050781 -1.066406 3.21875 -0.953125 C 3.382812 -0.835938 3.46875 -0.691406 3.46875 -0.515625 C 3.46875 -0.367188 3.382812 -0.242188 3.21875 -0.140625 C 3.0625 -0.0351562 2.910156 0.015625 2.765625 0.015625 Z M 5.71875 0.015625 C 5.519531 0.015625 5.347656 -0.046875 5.203125 -0.171875 C 5.054688 -0.296875 4.984375 -0.441406 4.984375 -0.609375 C 4.984375 -0.953125 5.210938 -1.125 5.671875 -1.125 C 5.835938 -1.125 6.003906 -1.066406 6.171875 -0.953125 C 6.335938 -0.835938 6.421875 -0.691406 6.421875 -0.515625 C 6.421875 -0.367188 6.335938 -0.242188 6.171875 -0.140625 C 6.015625 -0.0351562 5.863281 0.015625 5.71875 0.015625 Z M 5.71875 0.015625 "/></g></g></g></svg>